<svg width="58" height="58" viewBox="0 0 58 58" fill="none" xmlns="http://www.w3.org/2000/svg">
<path d="M20.6141 40.4368C20.6141 40.4368 20.5563 40.507 20.4433 40.6342C20.3323 40.7633 20.1634 40.9466 19.9493 41.1809C19.518 41.6461 18.8882 42.2972 18.1055 43.0515C17.6842 43.4577 17.2575 43.8582 16.8253 44.2529C16.3662 44.6743 15.8739 45.1105 15.3612 45.5584L13.7723 46.9314C13.2282 47.396 12.6792 47.8716 12.1218 48.3388L10.4633 49.7384C9.91665 50.2003 9.36973 50.646 8.84524 51.0821L8.07096 51.7228L7.32319 52.3299C6.83608 52.7235 6.38012 53.0999 5.95045 53.4388L4.78184 54.3676C4.47929 54.6041 4.17671 54.8405 3.87412 55.0769L3.28539 55.5289L3.0756 55.6874C2.90278 55.8179 2.68518 55.8745 2.47066 55.8446C2.25614 55.8147 2.06227 55.7009 1.93168 55.5281C1.70659 55.2301 1.71735 54.8274 1.93168 54.5434L2.09016 54.3336L2.54216 53.7449L3.25141 52.8372L4.1802 51.6686C4.51903 51.2389 4.89557 50.783 5.28911 50.2958L5.89619 49.5481L6.53691 48.7738C6.97304 48.2493 7.41869 47.7024 7.88065 47.1557L9.28024 45.4973C9.74741 44.9398 10.2231 44.3908 10.6876 43.8467L12.0606 42.2579C12.5085 41.7451 12.9448 41.2528 13.3662 40.7937C13.7609 40.3616 14.1614 39.9348 14.5675 39.5135C15.3219 38.7308 15.9729 38.101 16.4381 37.6697C16.6724 37.4556 16.8557 37.2867 16.9848 37.1757C17.1121 37.0628 17.1823 37.0049 17.1823 37.0049C18.2211 36.1485 19.7575 36.2963 20.6139 37.3351C21.3692 38.2512 21.3427 39.5543 20.6141 40.4368V40.4368Z" fill="#96A9B2"/>
<path d="M55.9948 19.4254L38.1939 1.62446C37.2662 0.696796 35.7621 0.696796 34.8344 1.62446L34.0914 2.36747C31.6491 4.80981 31.6491 8.76956 34.0914 11.2119C34.1212 11.2417 34.1449 11.2771 34.161 11.316C34.1772 11.355 34.1855 11.3967 34.1855 11.4389C34.1855 11.481 34.1772 11.5228 34.161 11.5617C34.1449 11.6006 34.1212 11.636 34.0914 11.6658L24.7765 20.9807C24.1816 21.5757 23.2505 21.646 22.5579 21.1682C19.2714 18.9008 14.7351 19.228 11.8108 22.1523L8.17358 25.7895C6.22095 27.7421 6.22095 30.9079 8.17358 32.8605L24.7587 49.4456C26.7114 51.3982 29.8771 51.3982 31.8298 49.4456L35.467 45.8083C38.3914 42.884 38.7185 38.3477 36.4511 35.0612C35.9732 34.3686 36.0436 33.4376 36.6385 32.8426L45.9534 23.5277C45.9832 23.4979 46.0186 23.4742 46.0576 23.4581C46.0965 23.442 46.1382 23.4337 46.1804 23.4337C46.2226 23.4337 46.2643 23.442 46.3032 23.4581C46.3422 23.4742 46.3776 23.4979 46.4074 23.5277C48.8497 25.9701 52.8094 25.9701 55.2518 23.5277L55.9948 22.7847C56.9225 21.8572 56.9225 20.353 55.9948 19.4254V19.4254Z" fill="#FF385C"/>
<path d="M28.5792 26.2482C28.3313 26.2485 28.0858 26.1999 27.8568 26.105C27.6277 26.0101 27.4197 25.8709 27.2447 25.6954C26.5077 24.9584 26.5077 23.7634 27.2447 23.0263L34.6691 15.602C35.4061 14.8649 36.6011 14.8649 37.3381 15.602C38.0751 16.339 38.0751 17.534 37.3381 18.271L29.9138 25.6954C29.7387 25.8709 29.5307 26.01 29.3016 26.1049C29.0726 26.1998 28.8271 26.2485 28.5792 26.2482V26.2482Z" fill="#FF6E83"/>
</svg>
