<svg width="10" height="10" viewBox="0 0 10 10" fill="none" xmlns="http://www.w3.org/2000/svg">
<g clip-path="url(#clip0_1002_458)">
<path d="M3.55415 6.97186C3.55415 6.97186 3.54417 6.98397 3.5247 7.0059C3.50556 7.02817 3.47644 7.05977 3.43953 7.10016C3.36517 7.18038 3.25658 7.29262 3.12164 7.42268C3.049 7.49272 2.97542 7.56176 2.90091 7.62981C2.82175 7.70247 2.73687 7.77768 2.64847 7.85491L2.37453 8.09162C2.28072 8.17172 2.18607 8.25373 2.08996 8.33428L1.80402 8.57559C1.70976 8.65524 1.61546 8.73207 1.52503 8.80727L1.39154 8.91774L1.26261 9.02241C1.17863 9.09026 1.10001 9.15516 1.02593 9.2136L0.824448 9.37373C0.772284 9.4145 0.720116 9.45526 0.667944 9.49602L0.56644 9.57395L0.530268 9.60127C0.500471 9.62378 0.462954 9.63353 0.425968 9.62838C0.388982 9.62323 0.355556 9.6036 0.333041 9.57381C0.294233 9.52245 0.296088 9.45301 0.333041 9.40405L0.360366 9.36788L0.438295 9.26637L0.56058 9.10987L0.720717 8.90838C0.779135 8.8343 0.844057 8.75569 0.911909 8.6717L1.01658 8.54278L1.12705 8.40928C1.20224 8.31885 1.27908 8.22455 1.35872 8.1303L1.60003 7.84436C1.68058 7.74825 1.76259 7.6536 1.84269 7.55979L2.07941 7.28584C2.15664 7.19745 2.23185 7.11256 2.30451 7.0334C2.37256 6.9589 2.4416 6.88532 2.51163 6.81268C2.64169 6.67774 2.75394 6.56914 2.83415 6.49479C2.87455 6.45788 2.90615 6.42875 2.92841 6.40961C2.95035 6.39014 2.96246 6.38016 2.96246 6.38016C3.14156 6.2325 3.40646 6.25799 3.55412 6.43709C3.68433 6.59504 3.67976 6.81971 3.55415 6.97186V6.97186Z" fill="#96A9B2"/>
<path d="M9.65427 3.3492L6.58515 0.280082C6.42521 0.12014 6.16587 0.12014 6.00593 0.280082L5.87783 0.408187C5.45673 0.829281 5.45673 1.512 5.87783 1.93309C5.88297 1.93823 5.88705 1.94433 5.88983 1.95104C5.89261 1.95776 5.89405 1.96495 5.89405 1.97222C5.89405 1.97949 5.89261 1.98669 5.88983 1.9934C5.88705 2.00011 5.88297 2.00621 5.87783 2.01135L4.27181 3.61737C4.16923 3.71994 4.00871 3.73207 3.88929 3.64969C3.32265 3.25875 2.54052 3.31518 2.03634 3.81936L1.40923 4.44647C1.07257 4.78313 1.07257 5.32895 1.40923 5.66561L4.26875 8.5251C4.60541 8.86176 5.15123 8.86176 5.48789 8.5251L6.115 7.89799C6.61919 7.39379 6.6756 6.61168 6.28466 6.04504C6.20228 5.92563 6.21441 5.7651 6.31699 5.66252L7.923 4.05651C7.92814 4.05136 7.93424 4.04729 7.94095 4.0445C7.94767 4.04172 7.95487 4.04029 7.96213 4.04029C7.9694 4.04029 7.9766 4.04172 7.98331 4.0445C7.99003 4.04729 7.99613 4.05136 8.00126 4.05651C8.42236 4.4776 9.10507 4.4776 9.52617 4.05651L9.65427 3.9284C9.81421 3.76848 9.81421 3.50914 9.65427 3.3492V3.3492Z" fill="#FF385C"/>
<path d="M4.92743 4.52556C4.88469 4.52562 4.84236 4.51723 4.80288 4.50087C4.76339 4.48451 4.72753 4.46051 4.69735 4.43025C4.57028 4.30318 4.57028 4.09714 4.69735 3.97007L5.97741 2.69001C6.10448 2.56292 6.31052 2.56292 6.43759 2.69001C6.56466 2.81708 6.56466 3.02312 6.43759 3.15019L5.15755 4.43025C5.12736 4.46051 5.09149 4.4845 5.052 4.50086C5.01251 4.51721 4.97018 4.52561 4.92743 4.52556V4.52556Z" fill="#FF6E83"/>
</g>
<defs>
<clipPath id="clip0_1002_458">
<rect width="10" height="10" fill="white"/>
</clipPath>
</defs>
</svg>
